<?xml version="1.0" encoding="UTF-8" standalone="no"?>
<svg xmlns:ffdec="https://www.free-decompiler.com/flash" xmlns:xlink="http://www.w3.org/1999/xlink" ffdec:objectType="shape" height="204.5px" width="204.5px" xmlns="http://www.w3.org/2000/svg">
  <g transform="matrix(1.0, 0.0, 0.0, 1.0, 102.5, 100.5)">
    <path d="M53.0 -53.05 Q75.0 -31.05 75.0 0.0 75.0 31.1 53.0 53.05 31.05 75.0 0.0 75.0 -31.1 75.0 -53.1 53.05 -75.0 31.1 -75.0 0.0 -75.0 -31.05 -53.1 -53.05 -31.1 -75.0 0.0 -75.0 31.05 -75.0 53.0 -53.05" fill="#ffffff" fill-rule="evenodd" stroke="none"/>
    <path d="M-0.25 -100.0 Q41.9 -100.0 71.7 -70.2 101.5 -40.4 101.5 1.75 101.5 43.9 71.7 73.7 41.9 103.5 -0.25 103.5 -42.4 103.5 -72.2 73.7 -102.0 43.9 -102.0 1.75 -102.0 -40.4 -72.2 -70.2 -42.4 -100.0 -0.25 -100.0" fill="#ffffff" fill-rule="evenodd" stroke="none"/>
    <path d="M-0.25 -100.0 Q41.9 -100.0 71.7 -70.2 101.5 -40.4 101.5 1.75 101.5 43.9 71.7 73.7 41.9 103.5 -0.25 103.5 -42.4 103.5 -72.2 73.7 -102.0 43.9 -102.0 1.75 -102.0 -40.4 -72.2 -70.2 -42.4 -100.0 -0.25 -100.0 Z" fill="none" stroke="#ffffff" stroke-linecap="round" stroke-linejoin="round" stroke-width="1.0"/>
  </g>
</svg>
