<?xml version="1.0" encoding="UTF-8" standalone="no"?>
<svg xmlns:ffdec="https://www.free-decompiler.com/flash" xmlns:xlink="http://www.w3.org/1999/xlink" ffdec:objectType="shape" height="20.45px" width="22.75px" xmlns="http://www.w3.org/2000/svg">
  <g transform="matrix(1.0, 0.0, 0.0, 1.0, 8.85, 7.0)">
    <path d="M3.3 -1.6 Q10.65 -10.75 10.65 -4.4 L5.8 2.15 10.35 5.7 Q13.9 8.7 13.9 9.7 13.9 10.5 13.4 11.1 12.85 11.8 11.9 11.8 11.55 11.8 3.1 5.6 -1.65 11.55 -3.8 12.95 -4.8 13.6 -5.4 13.4 -5.95 13.25 -6.0 12.6 L-6.0 11.8 -5.55 10.45 -0.25 3.15 -8.85 -3.2 Q-8.85 -5.3 -5.3 -4.1 -2.35 -3.15 2.2 -0.25 L3.3 -1.6" fill="#ffffff" fill-rule="evenodd" stroke="none"/>
  </g>
</svg>
